{
    "asset": {
        "copyright": "2020 (c) Adobe Inc.",
        "generator": "Adobe Dimension - 611127eacd250f22943d21b3c2c9dbaa3a0ef9a2",
        "version": "2.0"
    },
    "accessors": [
        {
            "bufferView": 0,
            "componentType": 5126,
            "count": 12200,
            "type": "VEC3",
            "max": [
                0.06181541830301285,
                0.19999998807907105,
                0.06181540712714195
            ],
            "min": [
                -0.061815399676561359,
                0.0,
                -0.061815399676561359
            ]
        },
        {
            "bufferView": 1,
            "componentType": 5126,
            "count": 12200,
            "type": "VEC3"
        },
        {
            "bufferView": 2,
            "componentType": 5126,
            "count": 12200,
            "type": "VEC2"
        },
        {
            "bufferView": 3,
            "componentType": 5125,
            "count": 18000,
            "type": "SCALAR",
            "max": [
                12199.0
            ],
            "min": [
                0.0
            ]
        }
    ],
    "bufferViews": [
        {
            "buffer": 0,
            "byteOffset": 0,
            "byteLength": 146400,
            "target": 34962
        },
        {
            "buffer": 0,
            "byteOffset": 146400,
            "byteLength": 146400,
            "target": 34962
        },
        {
            "buffer": 0,
            "byteOffset": 292800,
            "byteLength": 97600,
            "target": 34962
        },
        {
            "buffer": 0,
            "byteOffset": 390400,
            "byteLength": 72000,
            "target": 34963
        }
    ],
    "buffers": [
        {
            "byteLength": 462400,
            "uri": "drop_binary.bin"
        }
    ],
    "cameras": [
        {
            "perspective": {
                "znear": 0.000010000000656873454,
                "yfov": 0.6024156808853149,
                "zfar": 2.0,
                "aspectRatio": 1.3333333730697632
            },
            "type": "perspective",
            "name": "render_camera"
        }
    ],
    "materials": [
        {
            "pbrMetallicRoughness": {
                "baseColorFactor": [
                    1.0,
                    0.49102088809013369,
                    0.6514056921005249,
                    1.0
                ],
                "metallicFactor": 0.0,
                "roughnessFactor": 0.028999999165534974
            },
            "name": "Plastic",
            "doubleSided": true
        }
    ],
    "meshes": [
        {
            "name": "Drop",
            "primitives": [
                {
                    "attributes": {
                        "POSITION": 0,
                        "NORMAL": 1,
                        "TEXCOORD_0": 2
                    },
                    "indices": 3,
                    "material": 0
                }
            ]
        }
    ],
    "nodes": [
        {
            "translation": [
                0.5,
                0.29999998211860659,
                0.5
            ],
            "rotation": [
                -0.12059047073125839,
                0.379409521818161,
                0.04995020851492882,
                0.9159756302833557
            ],
            "scale": [
                1.0,
                1.0,
                0.9999999403953552
            ],
            "camera": 0,
            "name": "render_camera_n3d"
        },
        {
            "mesh": 0,
            "name": "Drop"
        }
    ],
    "scenes": [
        {
            "nodes": [
                0,
                1
            ],
            "name": "scene"
        }
    ],
    "scene": 0
}